<?xml version="1.0" encoding="UTF-8" standalone="no"?>
<svg width="62px" height="71px" viewBox="0 0 62 71" version="1.1" xmlns="http://www.w3.org/2000/svg" xmlns:xlink="http://www.w3.org/1999/xlink">
    <!-- Generator: Sketch 41.2 (35397) - http://www.bohemiancoding.com/sketch -->
    <title>010-dashboard speed</title>
    <desc>Created with Sketch.</desc>
    <defs></defs>
    <g id="Page-1" stroke="none" stroke-width="1" fill="none" fill-rule="evenodd">
        <g id="产品和服务" transform="translate(-419.000000, -1615.000000)">
            <g id="Group-4" transform="translate(0.000000, 1146.000000)">
                <g id="Group-3" transform="translate(235.000000, 381.477428)">
                    <g id="010-dashboard-speed" transform="translate(185.000000, 88.522572)">
                        <g id="dashboard_speed">
                            <g id="dashboard_speed_1_">
                                <ellipse id="Oval" stroke="#4092FF" stroke-width="1.64383562" cx="29.9537705" cy="30.0704225" rx="29.5081967" ry="29.5774648"></ellipse>
                                <g id="Group" transform="translate(2.459016, 2.957746)" fill="#4092FF">
                                    <path d="M27.4947541,0 C12.5562295,0 0.44557377,12.1390845 0.44557377,27.1126761 C0.44557377,34.5997183 3.47311475,41.3778873 8.36803279,46.2842958 L13.5840984,41.0559859 C10.0244262,37.4869718 7.82262295,32.5573944 7.82262295,27.1126761 C7.82262295,16.2227465 16.6303279,7.3943662 27.4947541,7.3943662 C33.4972131,7.3943662 38.8681967,10.0923239 42.4765574,14.3406338 L48.0944262,9.55105634 C43.1331148,3.70950704 35.7477049,0 27.4947541,0 Z" id="Shape"></path>
                                    <path d="M48.0944262,9.55105634 L42.4765574,14.3406338 C45.3993443,17.7819718 47.1668852,22.2392958 47.1668852,27.1126761 C47.1668852,32.5573944 44.9645902,37.4869718 41.404918,41.055493 L46.6209836,46.2838028 C51.5159016,41.3773944 54.5439344,34.5992254 54.5439344,27.1121831 C54.5439344,20.4114085 52.1134426,14.2829577 48.0944262,9.55105634 Z" id="Shape"></path>
                                </g>
                                <path d="M29.6252459,34.2709155 L25.7685246,29.6809859 L50.3577049,12.2021831 L50.9886885,12.9534507 L29.6252459,34.2709155 Z M27.2095082,29.8648592 L29.6886885,32.8157042 L46.1129508,16.4283099 L27.2095082,29.8648592 Z" id="Shape" fill="#FFFFFF"></path>
                                <rect id="Rectangle-path" fill="#4092FF" x="0.44557377" y="67.0422535" width="9.83606557" height="2.46478873"></rect>
                                <rect id="Rectangle-path" fill="#4092FF" x="12.7406557" y="64.5774648" width="9.83606557" height="4.92957746"></rect>
                                <rect id="Rectangle-path" fill="#4092FF" x="25.0357377" y="62.1126761" width="9.83606557" height="7.3943662"></rect>
                                <rect id="Rectangle-path" fill="#4092FF" x="37.3308197" y="59.6478873" width="9.83606557" height="9.85915493"></rect>
                                <rect id="Rectangle-path" fill="#4092FF" x="49.6259016" y="54.7183099" width="9.83606557" height="14.7887324"></rect>
                                <path d="M10.7734426,70 L4.87180328,70 L4.87180328,64.084507 L10.7734426,64.084507 L10.7734426,70 Z M5.85540984,69.0140845 L9.78983607,69.0140845 L9.78983607,65.0704225 L5.85540984,65.0704225 L5.85540984,69.0140845 L5.85540984,69.0140845 Z" id="Shape" fill="#FFFFFF"></path>
                                <path d="M23.0685246,70 L17.1668852,70 L17.1668852,61.6197183 L23.0685246,61.6197183 L23.0685246,70 Z M18.1504918,69.0140845 L22.084918,69.0140845 L22.084918,62.6056338 L18.1504918,62.6056338 L18.1504918,69.0140845 Z" id="Shape" fill="#FFFFFF"></path>
                                <path d="M35.3636066,70 L29.4619672,70 L29.4619672,59.0484507 L35.3636066,59.0484507 L35.3636066,70 Z M30.4455738,69.0140845 L34.38,69.0140845 L34.38,60.0343662 L30.4455738,60.0343662 L30.4455738,69.0140845 L30.4455738,69.0140845 Z" id="Shape" fill="#FFFFFF"></path>
                                <path d="M47.6586885,70 L41.7570492,70 L41.7570492,56.6901408 L47.6586885,56.6901408 L47.6586885,70 Z M42.7406557,69.0140845 L46.675082,69.0140845 L46.675082,57.6760563 L42.7406557,57.6760563 L42.7406557,69.0140845 Z" id="Shape" fill="#FFFFFF"></path>
                                <path d="M59.9537705,70 L54.0521311,70 L54.0521311,51.7605634 L59.9537705,51.7605634 L59.9537705,70 Z M55.0357377,69.0140845 L58.9701639,69.0140845 L58.9701639,52.7464789 L55.0357377,52.7464789 L55.0357377,69.0140845 Z" id="Shape" fill="#FFFFFF"></path>
                                <g id="Group" transform="translate(0.000000, 46.830986)" fill="#FFFFFF">
                                    <rect id="Rectangle-path" x="0.44557377" y="12.3239437" width="4.87721311" height="0.985915493"></rect>
                                    <rect id="Rectangle-path" x="0.44557377" y="9.85915493" width="4.87721311" height="0.985915493"></rect>
                                    <rect id="Rectangle-path" x="0.44557377" y="7.3943662" width="4.87721311" height="0.985915493"></rect>
                                    <rect id="Rectangle-path" x="0.44557377" y="4.92957746" width="4.87721311" height="0.985915493"></rect>
                                    <rect id="Rectangle-path" x="0.44557377" y="2.46478873" width="4.87721311" height="0.985915493"></rect>
                                    <rect id="Rectangle-path" x="0.44557377" y="0" width="4.87721311" height="0.985915493"></rect>
                                </g>
                                <g id="Group" transform="translate(54.098361, 0.000000)" fill="#FFFFFF">
                                    <rect id="Rectangle-path" x="0.465737705" y="12.3239437" width="4.87721311" height="0.985915493"></rect>
                                    <rect id="Rectangle-path" x="0.465737705" y="9.85915493" width="4.87721311" height="0.985915493"></rect>
                                    <rect id="Rectangle-path" x="0.465737705" y="7.3943662" width="4.87721311" height="0.985915493"></rect>
                                    <rect id="Rectangle-path" x="0.465737705" y="4.92957746" width="4.87721311" height="0.985915493"></rect>
                                    <rect id="Rectangle-path" x="0.465737705" y="2.46478873" width="4.87721311" height="0.985915493"></rect>
                                    <rect id="Rectangle-path" x="0.465737705" y="0" width="4.87721311" height="0.985915493"></rect>
                                </g>
                                <path d="M6.59311475,15.7746479 C6.46622951,15.7746479 6.33983607,15.7711972 6.21491803,15.7642958 L6.2695082,14.7798592 C6.70377049,14.804507 7.15229508,14.7793662 7.58065574,14.7029577 L7.75180328,15.6740845 C7.37213115,15.7406338 6.98213115,15.7746479 6.59311475,15.7746479 Z M3.28032787,14.8883099 C2.8352459,14.6309859 2.41918033,14.3209155 2.04393443,13.9669718 L2.71819672,13.2492254 C3.03786885,13.5509155 3.39245902,13.8146479 3.77213115,14.034507 L3.28032787,14.8883099 Z M10.562459,14.455493 L9.97377049,13.6652817 C10.3254098,13.4020423 10.6465574,13.0978873 10.9283607,12.7616901 L11.6813115,13.3951408 C11.3508197,13.79 10.9740984,14.1464085 10.562459,14.455493 Z M0.35704918,11.4080282 C0.18,10.9234507 0.06,10.4176761 0,9.905 L0.976721311,9.79014085 C1.02786885,10.2269014 1.13016393,10.6572535 1.28065574,11.0693662 L0.35704918,11.4080282 Z M13.054918,10.6533099 L12.0983607,10.4260563 C12.1981967,10.0016197 12.2493443,9.56239437 12.2493443,9.11971831 L13.2329508,9.09507042 L13.2329508,9.11971831 C13.232459,9.63880282 13.1729508,10.1549296 13.054918,10.6533099 Z M1.27278689,7.19225352 L0.347704918,6.85704225 C0.522295082,6.37295775 0.75442623,5.90809859 1.03672131,5.47577465 L1.86,6.01605634 C1.61901639,6.38429577 1.42180328,6.78014085 1.27278689,7.19225352 Z M11.64,6.55683099 C11.4422951,6.16640845 11.1978689,5.7971831 10.9136066,5.46049296 L11.6645902,4.82408451 C11.997541,5.21894366 12.2842623,5.65176056 12.5163934,6.10971831 L11.64,6.55683099 Z M3.75245902,4.21626761 L3.25770492,3.36443662 C3.70327869,3.10464789 4.17885246,2.89711268 4.67065574,2.74823944 L4.95590164,3.69176056 C4.53688525,3.8184507 4.13163934,3.99492958 3.75245902,4.21626761 Z M8.81704918,3.90570423 C8.4142623,3.73267606 7.99081967,3.60746479 7.55803279,3.53302817 L7.7252459,2.56140845 C8.23278689,2.64915493 8.7304918,2.7965493 9.20409836,2.99915493 L8.81704918,3.90570423 Z" id="Shape" fill="#FFFFFF"></path>
                                <ellipse id="Oval" fill="#4092FF" cx="11.5111475" cy="58.415493" rx="1.2295082" ry="1.23239437"></ellipse>
                                <ellipse id="Oval" fill="#E4E5E7" cx="49.6259016" cy="1.72535211" rx="1.2295082" ry="1.23239437"></ellipse>
                                <path d="M29.9537705,50.2816901 C29.0045902,50.2816901 28.232459,49.5077465 28.232459,48.556338 C28.232459,47.6049296 29.0045902,46.8309859 29.9537705,46.8309859 C30.9029508,46.8309859 31.675082,47.6049296 31.675082,48.556338 C31.675082,49.5077465 30.9029508,50.2816901 29.9537705,50.2816901 Z M29.9537705,47.8169014 C29.5470492,47.8169014 29.2160656,48.148662 29.2160656,48.556338 C29.2160656,48.9640141 29.5470492,49.2957746 29.9537705,49.2957746 C30.3604918,49.2957746 30.6914754,48.9640141 30.6914754,48.556338 C30.6914754,48.148662 30.3604918,47.8169014 29.9537705,47.8169014 Z" id="Shape" fill="#FFFFFF"></path>
                                <path d="M25.0357377,50.2816901 C24.0865574,50.2816901 23.3144262,49.5077465 23.3144262,48.556338 C23.3144262,47.6049296 24.0865574,46.8309859 25.0357377,46.8309859 C25.984918,46.8309859 26.7570492,47.6049296 26.7570492,48.556338 C26.7570492,49.5077465 25.984918,50.2816901 25.0357377,50.2816901 Z M25.0357377,47.8169014 C24.6290164,47.8169014 24.2980328,48.148662 24.2980328,48.556338 C24.2980328,48.9640141 24.6290164,49.2957746 25.0357377,49.2957746 C25.442459,49.2957746 25.7734426,48.9640141 25.7734426,48.556338 C25.7734426,48.148662 25.442459,47.8169014 25.0357377,47.8169014 Z" id="Shape" fill="#FFFFFF"></path>
                                <path d="M34.8718033,50.2816901 C33.922623,50.2816901 33.1504918,49.5077465 33.1504918,48.556338 C33.1504918,47.6049296 33.922623,46.8309859 34.8718033,46.8309859 C35.8209836,46.8309859 36.5931148,47.6049296 36.5931148,48.556338 C36.5931148,49.5077465 35.8209836,50.2816901 34.8718033,50.2816901 Z M34.8718033,47.8169014 C34.465082,47.8169014 34.1340984,48.148662 34.1340984,48.556338 C34.1340984,48.9640141 34.465082,49.2957746 34.8718033,49.2957746 C35.2785246,49.2957746 35.6095082,48.9640141 35.6095082,48.556338 C35.6095082,48.148662 35.2785246,47.8169014 34.8718033,47.8169014 Z" id="Shape" fill="#FFFFFF"></path>
                                <path d="M39.7898361,50.2816901 C38.8406557,50.2816901 38.0685246,49.5077465 38.0685246,48.556338 C38.0685246,47.6049296 38.8406557,46.8309859 39.7898361,46.8309859 C40.7390164,46.8309859 41.5111475,47.6049296 41.5111475,48.556338 C41.5111475,49.5077465 40.7390164,50.2816901 39.7898361,50.2816901 Z M39.7898361,47.8169014 C39.3831148,47.8169014 39.0521311,48.148662 39.0521311,48.556338 C39.0521311,48.9640141 39.3831148,49.2957746 39.7898361,49.2957746 C40.1965574,49.2957746 40.527541,48.9640141 40.527541,48.556338 C40.527541,48.148662 40.1965574,47.8169014 39.7898361,47.8169014 Z" id="Shape" fill="#FFFFFF"></path>
                                <path d="M20.1177049,50.2816901 C19.1685246,50.2816901 18.3963934,49.5077465 18.3963934,48.556338 C18.3963934,47.6049296 19.1685246,46.8309859 20.1177049,46.8309859 C21.0668852,46.8309859 21.8390164,47.6049296 21.8390164,48.556338 C21.8390164,49.5077465 21.0668852,50.2816901 20.1177049,50.2816901 Z M20.1177049,47.8169014 C19.7109836,47.8169014 19.38,48.148662 19.38,48.556338 C19.38,48.9640141 19.7109836,49.2957746 20.1177049,49.2957746 C20.5244262,49.2957746 20.8554098,48.9640141 20.8554098,48.556338 C20.8554098,48.148662 20.5244262,47.8169014 20.1177049,47.8169014 Z" id="Shape" fill="#FFFFFF"></path>
                            </g>
                        </g>
                    </g>
                </g>
            </g>
        </g>
    </g>
</svg>