<?xml version="1.0" encoding="UTF-8" standalone="no"?>
<svg width="60px" height="70px" viewBox="0 0 60 70" version="1.1" xmlns="http://www.w3.org/2000/svg" xmlns:xlink="http://www.w3.org/1999/xlink">
    <!-- Generator: Sketch 41.2 (35397) - http://www.bohemiancoding.com/sketch -->
    <title>004-launch</title>
    <desc>Created with Sketch.</desc>
    <defs></defs>
    <g id="Page-1" stroke="none" stroke-width="1" fill="none" fill-rule="evenodd">
        <g id="产品和服务" transform="translate(-960.000000, -1616.000000)">
            <g id="Group-4" transform="translate(0.000000, 1146.000000)">
                <g id="Group-3-Copy" transform="translate(772.000000, 381.000000)">
                    <g id="004-launch" transform="translate(188.000000, 89.000000)">
                        <g id="launch">
                            <g id="launch_1_">
                                <path d="M22.6229508,25.3000704 L2.95081967,25.3000704 C1.32344262,25.3000704 0,23.9735211 0,22.3423239 C0,20.7111268 1.32344262,19.3845775 2.95081967,19.3845775 L22.6229508,19.3845775 C24.2503279,19.3845775 25.5737705,20.7111268 25.5737705,22.3423239 C25.5737705,23.9735211 24.2503279,25.3000704 22.6229508,25.3000704 Z M2.95081967,20.370493 C1.86590164,20.370493 0.983606557,21.2548592 0.983606557,22.3423239 C0.983606557,23.4297887 1.86590164,24.3141549 2.95081967,24.3141549 L22.6229508,24.3141549 C23.7078689,24.3141549 24.5901639,23.4297887 24.5901639,22.3423239 C24.5901639,21.2548592 23.7078689,20.370493 22.6229508,20.370493 L2.95081967,20.370493 Z" id="Shape" fill="#4092FF"></path>
                                <path d="M15.7377049,33.1873944 L12.7868852,33.1873944 C11.1595082,33.1873944 9.83606557,31.8608451 9.83606557,30.2296479 C9.83606557,28.5984507 11.1595082,27.2719014 12.7868852,27.2719014 L15.7377049,27.2719014 C17.365082,27.2719014 18.6885246,28.5984507 18.6885246,30.2296479 C18.6885246,31.8608451 17.365082,33.1873944 15.7377049,33.1873944 Z M12.7868852,28.2578169 C11.7019672,28.2578169 10.8196721,29.1421831 10.8196721,30.2296479 C10.8196721,31.3171127 11.7019672,32.2014789 12.7868852,32.2014789 L15.7377049,32.2014789 C16.822623,32.2014789 17.704918,31.3171127 17.704918,30.2296479 C17.704918,29.1421831 16.822623,28.2578169 15.7377049,28.2578169 L12.7868852,28.2578169 L12.7868852,28.2578169 Z" id="Shape" fill="#4092FF"></path>
                                <path d="M54.1091803,28.2578169 L48.207541,28.2578169 C46.5801639,28.2578169 45.2567213,26.9312676 45.2567213,25.3000704 C45.2567213,23.6688732 46.5801639,22.3423239 48.207541,22.3423239 L54.1091803,22.3423239 C55.7365574,22.3423239 57.06,23.6688732 57.06,25.3000704 C57.06,26.9312676 55.7365574,28.2578169 54.1091803,28.2578169 Z M48.207541,23.3282394 C47.122623,23.3282394 46.2403279,24.2126056 46.2403279,25.3000704 C46.2403279,26.3875352 47.122623,27.2719014 48.207541,27.2719014 L54.1091803,27.2719014 C55.1940984,27.2719014 56.0763934,26.3875352 56.0763934,25.3000704 C56.0763934,24.2126056 55.1940984,23.3282394 54.1091803,23.3282394 L48.207541,23.3282394 Z" id="Shape" fill="#FFFFFF"></path>
                                <path d="M30,0.652183099 C23.8927869,5.95098592 21.5562295,11.5638028 20.6778689,15.4409155 L39.3221311,15.4409155 C38.4432787,11.5638028 36.1067213,5.95098592 30,0.652183099 Z" id="Shape" fill="#4092FF"></path>
                                <rect id="Rectangle-path" fill="#FFFFFF" x="20.1639344" y="49.6004225" width="19.6721311" height="0.985915493"></rect>
                                <rect id="Rectangle-path" fill="#FFFFFF" x="20.1639344" y="51.9197887" width="19.6721311" height="0.985915493"></rect>
                                <rect id="Rectangle-path" fill="#FFFFFF" x="20.1639344" y="54.3845775" width="19.6721311" height="0.985915493"></rect>
                                <path d="M20.1639344,57.3423239 L0.491803279,57.3423239 L0.491803279,53.398662 C0.491803279,53.398662 0.737704918,45.6345775 10.3278689,43.539507 C19.9180328,41.4444366 20.1870492,27.7648592 20.1870492,22.8352817" id="Shape" fill="#4092FF"></path>
                                <path d="M39.8586885,57.3423239 L59.5308197,57.3423239 L59.5308197,53.398662 C59.5308197,53.398662 59.284918,45.6345775 49.6947541,43.539507 C40.1045902,41.4444366 39.8360656,27.7648592 39.8360656,22.8352817" id="Shape" fill="#4092FF"></path>
                                <rect id="Rectangle-path" fill="#4092FF" x="22.6229508" y="59.8071127" width="14.7540984" height="4.92957746"></rect>
                                <rect id="Rectangle-path" fill="#4092FF" x="2.33606557" y="55.6169718" width="10.3986885" height="0.985915493"></rect>
                                <rect id="Rectangle-path" fill="#4092FF" x="2.33606557" y="58.0817606" width="10.3986885" height="0.985915493"></rect>
                                <rect id="Rectangle-path" fill="#4092FF" x="2.33606557" y="60.5465493" width="10.3986885" height="0.985915493"></rect>
                                <rect id="Rectangle-path" fill="#4092FF" x="2.33606557" y="63.011338" width="10.3986885" height="0.985915493"></rect>
                                <rect id="Rectangle-path" fill="#4092FF" x="49.735082" y="0.159225352" width="9.77311475" height="0.985915493"></rect>
                                <rect id="Rectangle-path" fill="#4092FF" x="49.735082" y="2.62401408" width="9.77311475" height="0.985915493"></rect>
                                <rect id="Rectangle-path" fill="#4092FF" x="49.735082" y="5.01880282" width="9.77311475" height="0.985915493"></rect>
                                <path d="M40.3037705,60.3000704 L19.6947541,60.3000704 L19.6947541,20.370493 C19.6559016,19.9840141 18.8163934,9.70338028 29.6783607,0.279507042 L30,0 L30.3216393,0.279507042 C41.1821311,9.70387324 40.342623,19.9840141 40.3013115,20.416831 L40.3037705,60.3000704 Z M20.6783607,59.3141549 L39.3201639,59.3141549 L39.3201639,20.370493 C39.3319672,20.2245775 40.1188525,10.3082394 30,1.30732394 C24.7632787,5.96577465 22.5044262,10.826831 21.5311475,14.1133803 C20.455082,17.7494366 20.6739344,20.2990141 20.6763934,20.3246479 L20.6783607,59.3141549 Z" id="Shape" fill="#FFFFFF"></path>
                                <path d="M12.2640984,48.0066901 C11.9104918,47.6522535 11.5632787,47.2830282 11.2322951,46.9093662 L11.9680328,46.2547183 C12.2857377,46.6140845 12.6196721,46.9685211 12.9595082,47.3091549 L12.2640984,48.0066901 Z M9.37229508,44.5397183 C9.08803279,44.1290845 8.81163934,43.703662 8.55147541,43.2747887 L9.39196721,42.7626056 C9.64229508,43.1747183 9.90737705,43.5838732 10.1803279,43.9777465 L9.37229508,44.5397183 Z M7.14688525,40.6069014 C6.94081967,40.1504225 6.74606557,39.6821127 6.56754098,39.2142958 L7.48672131,38.8628169 C7.65737705,39.3119014 7.8447541,39.7619718 8.04295082,40.2002113 L7.14688525,40.6069014 Z M5.66557377,36.3373944 C5.54459016,35.8493662 5.43688525,35.3534507 5.34590164,34.8634507 L6.31327869,34.6835211 C6.40081967,35.1538028 6.50409836,35.63 6.62065574,36.0992958 L5.66557377,36.3373944 Z M4.97114754,31.873169 C4.93868852,31.3733099 4.9204918,30.8665493 4.91852459,30.3657042 L5.90213115,30.3607746 C5.90459016,30.8419014 5.92131148,31.3289437 5.95327869,31.8085915 L4.97114754,31.873169 Z M6.05852459,27.4676056 L5.08180328,27.3557042 C5.13786885,26.8612676 5.21065574,26.3589437 5.29721311,25.8630282 L6.26655738,26.0335915 C6.18245902,26.5097887 6.11311475,26.9923944 6.05852459,27.4676056 Z M6.93491803,23.2158451 L5.99360656,22.9304225 C6.13770492,22.4532394 6.29852459,21.9721127 6.47213115,21.501338 L7.3952459,21.8424648 C7.22803279,22.295493 7.07311475,22.7573944 6.93491803,23.2158451 Z M8.55639344,19.1923239 L7.68147541,18.7417606 C7.90967213,18.2971127 8.15409836,17.8529577 8.40885246,17.4221127 L9.2552459,17.9249296 C9.01032787,18.3385211 8.7757377,18.7649296 8.55639344,19.1923239 Z M10.8757377,15.5276761 L10.0957377,14.9262676 C10.4006557,14.5289437 10.7208197,14.1365493 11.0483607,13.7594366 L11.7909836,14.4061972 C11.4767213,14.7685211 11.1688525,15.1461268 10.8757377,15.5276761 Z" id="Shape" fill="#FFFFFF"></path>
                                <path d="M48.9521311,46.6988732 L48.2095082,46.0521127 C48.5237705,45.6897887 48.8316393,45.3121831 49.1242623,44.9306338 L49.9042623,45.5320423 C49.5998361,45.9293662 49.2791803,46.3217606 48.9521311,46.6988732 Z M51.5906557,43.0371831 L50.7442623,42.5343662 C50.9891803,42.1202817 51.2242623,41.6938732 51.4431148,41.2669718 L52.3180328,41.7175352 C52.0903279,42.1621831 51.8459016,42.606338 51.5906557,43.0371831 Z M53.5283607,38.9574648 L52.6052459,38.616338 C52.7719672,38.1638028 52.9268852,37.7014085 53.0655738,37.2429577 L54.0068852,37.5283803 C53.8627869,38.0055634 53.7014754,38.4866901 53.5283607,38.9574648 Z M54.7027869,34.5957746 L53.7334426,34.4252113 C53.8170492,33.9490141 53.8868852,33.4664085 53.9409836,32.9911972 L54.9177049,33.1030986 C54.8621311,33.5980282 54.7893443,34.0998592 54.7027869,34.5957746 Z M54.0978689,30.0985211 C54.0954098,29.6173944 54.0786885,29.1303521 54.0467213,28.6507042 L55.0283607,28.5861268 C55.0608197,29.0859859 55.0790164,29.5927465 55.0809836,30.0935915 L54.0978689,30.0985211 Z M53.6872131,25.7757746 C53.5991803,25.3030282 53.4954098,24.826338 53.3793443,24.359507 L54.3339344,24.1214085 C54.4544262,24.6069718 54.5621311,25.1023944 54.6540984,25.5948592 L53.6872131,25.7757746 Z M52.5127869,21.5959859 C52.3421311,21.1469014 52.1547541,20.696831 51.9565574,20.2585915 L52.852623,19.8519014 C53.0586885,20.3083803 53.2534426,20.7766901 53.4319672,21.244507 L52.5127869,21.5959859 Z M50.607541,17.6966901 C50.3572131,17.2845775 50.0921311,16.8754225 49.8191803,16.4815493 L50.6272131,15.9190845 C50.9114754,16.3297183 51.1878689,16.7551408 51.4480328,17.1840141 L50.607541,17.6966901 Z M48.0314754,14.2035915 C47.7137705,13.8442254 47.3798361,13.4897887 47.04,13.1491549 L47.7354098,12.4521127 C48.0890164,12.8065493 48.4362295,13.1757746 48.7672131,13.5494366 L48.0314754,14.2035915 Z" id="Shape" fill="#FFFFFF"></path>
                                <ellipse id="Oval" fill="#FFFFFF" cx="15.2459016" cy="10.511338" rx="2.45901639" ry="2.46478873"></ellipse>
                                <ellipse id="Oval" fill="#FFFFFF" cx="44.7540984" cy="10.511338" rx="0.983606557" ry="0.985915493"></ellipse>
                                <path d="M15.2459016,51.426831 C14.432459,51.426831 13.7704918,50.7633099 13.7704918,49.9479577 C13.7704918,49.1326056 14.432459,48.4690845 15.2459016,48.4690845 C16.0593443,48.4690845 16.7213115,49.1326056 16.7213115,49.9479577 C16.7213115,50.7633099 16.0593443,51.426831 15.2459016,51.426831 Z M15.2459016,49.455 C14.9744262,49.455 14.7540984,49.676338 14.7540984,49.9479577 C14.7540984,50.2195775 14.9744262,50.4409155 15.2459016,50.4409155 C15.517377,50.4409155 15.7377049,50.2195775 15.7377049,49.9479577 C15.7377049,49.676338 15.517377,49.455 15.2459016,49.455 Z" id="Shape" fill="#FFFFFF"></path>
                                <ellipse id="Oval" fill="#FFFFFF" cx="44.7540984" cy="50.0933803" rx="1.96721311" ry="1.97183099"></ellipse>
                                <g id="Group" transform="translate(27.540984, 20.211268)" fill="#FFFFFF">
                                    <ellipse id="Oval" cx="2.45901639" cy="2.62401408" rx="2.45901639" ry="2.46478873"></ellipse>
                                    <ellipse id="Oval" cx="2.45901639" cy="10.0183803" rx="2.45901639" ry="2.46478873"></ellipse>
                                    <ellipse id="Oval" cx="2.45901639" cy="17.4127465" rx="2.45901639" ry="2.46478873"></ellipse>
                                </g>
                                <g id="Group" transform="translate(24.590164, 66.549296)" fill="#4092FF">
                                    <rect id="Rectangle-path" x="0" y="0.159225352" width="0.983606557" height="2.95774648"></rect>
                                    <rect id="Rectangle-path" x="2.45901639" y="0.159225352" width="0.983606557" height="2.95774648"></rect>
                                    <rect id="Rectangle-path" x="4.91754098" y="0.159225352" width="0.983606557" height="2.95774648"></rect>
                                    <rect id="Rectangle-path" x="7.37704918" y="0.159225352" width="0.983606557" height="2.95774648"></rect>
                                    <rect id="Rectangle-path" x="9.83606557" y="0.159225352" width="0.983606557" height="2.95774648"></rect>
                                </g>
                                <path d="M45.9836066,33.1873944 C45.0344262,33.1873944 44.2622951,32.4134507 44.2622951,31.4620423 C44.2622951,30.5106338 45.0344262,29.7366901 45.9836066,29.7366901 C46.9327869,29.7366901 47.704918,30.5106338 47.704918,31.4620423 C47.704918,32.4134507 46.9327869,33.1873944 45.9836066,33.1873944 Z M45.9836066,30.7226056 C45.5768852,30.7226056 45.2459016,31.0543662 45.2459016,31.4620423 C45.2459016,31.8697183 45.5768852,32.2014789 45.9836066,32.2014789 C46.3903279,32.2014789 46.7213115,31.8697183 46.7213115,31.4620423 C46.7213115,31.0543662 46.3903279,30.7226056 45.9836066,30.7226056 Z" id="Shape" fill="#FFFFFF"></path>
                                <path d="M54.5901639,13.3897183 C53.6409836,13.3897183 52.8688525,12.6157746 52.8688525,11.6643662 C52.8688525,10.7129577 53.6409836,9.93901408 54.5901639,9.93901408 C55.5393443,9.93901408 56.3114754,10.7129577 56.3114754,11.6643662 C56.3114754,12.6157746 55.5393443,13.3897183 54.5901639,13.3897183 Z M54.5901639,10.9249296 C54.1834426,10.9249296 53.852459,11.2566901 53.852459,11.6643662 C53.852459,12.0720423 54.1834426,12.4038028 54.5901639,12.4038028 C54.9968852,12.4038028 55.3278689,12.0720423 55.3278689,11.6643662 C55.3278689,11.2566901 54.9968852,10.9249296 54.5901639,10.9249296 Z" id="Shape" fill="#FFFFFF"></path>
                                <rect id="Rectangle-path" fill="#4092FF" x="0.491803279" y="0.652183099" width="2.45901639" height="2.46478873"></rect>
                                <rect id="Rectangle-path" fill="#4092FF" x="0.491803279" y="5.58176056" width="2.45901639" height="2.46478873"></rect>
                                <rect id="Rectangle-path" fill="#4092FF" x="0.491803279" y="10.4319718" width="2.45901639" height="2.46478873"></rect>
                            </g>
                        </g>
                    </g>
                </g>
            </g>
        </g>
    </g>
</svg>